<?xml version="1.0" standalone="no"?>
<!DOCTYPE svg PUBLIC "-//W3C//DTD SVG 20010904//EN"
 "http://www.w3.org/TR/2001/REC-SVG-20010904/DTD/svg10.dtd">
<svg version="1.0" xmlns="http://www.w3.org/2000/svg"
 width="225.000000pt" height="225.000000pt" viewBox="0 0 225.000000 225.000000"
 preserveAspectRatio="xMidYMid meet">

<g transform="translate(0.000000,225.000000) scale(0.100000,-0.100000)"
fill="#000000" stroke="none">
<path d="M180 2245 c0 -19 33 -65 42 -59 6 4 8 3 5 -4 -4 -5 1 -24 10 -41 21
-35 21 -35 -75 -178 -60 -92 -63 -116 -10 -112 22 2 32 -1 31 -9 -4 -17 -70
-111 -107 -149 -41 -45 -21 -41 47 8 32 22 57 38 57 35 0 -15 -54 -99 -113
-178 -37 -50 -67 -97 -65 -104 2 -10 19 -7 73 11 96 33 100 32 73 -15 -18 -31
-36 -46 -85 -67 l-63 -27 0 -678 0 -678 483 1 c265 0 476 3 469 6 -6 2 -9 10
-6 15 4 6 2 8 -3 5 -18 -11 -39 26 -52 88 -7 33 -15 69 -17 80 -3 11 44 -29
103 -90 94 -97 113 -112 46 -36 -12 14 -19 29 -16 34 3 6 2 7 -4 4 -5 -4 -23
7 -38 23 -16 17 -25 30 -19 30 5 0 1 5 -9 11 -9 6 -15 14 -12 20 4 5 -2 6 -11
2 -13 -5 -16 -3 -11 10 3 9 3 16 -1 14 -13 -4 -49 28 -56 50 -4 14 0 38 12 64
l19 42 33 -37 c43 -47 70 -92 62 -102 -4 -4 -1 -3 7 1 11 6 13 4 8 -8 -4 -10
-2 -16 6 -14 7 1 10 -5 9 -13 -2 -8 0 -12 4 -7 9 9 30 -22 86 -121 35 -63 42
-71 56 -60 12 10 16 10 19 1 6 -17 50 -17 56 0 4 9 6 9 6 0 1 -7 5 -13 10 -13
4 0 6 11 3 25 -2 14 -8 25 -13 25 -4 0 -6 9 -4 21 2 11 5 82 6 157 0 75 5 145
11 155 6 12 4 42 -7 91 -16 70 -16 76 1 107 l17 34 8 -29 c5 -17 7 -32 5 -34
-2 -2 16 -43 40 -92 l43 -90 -10 -80 c-5 -44 -21 -124 -34 -177 -14 -54 -25
-101 -25 -105 0 -5 129 -8 286 -8 l286 0 -6 28 c-4 15 -9 35 -12 46 -5 16 -2
17 37 11 24 -4 52 -11 61 -16 9 -5 34 -9 54 -9 34 0 36 2 24 15 -9 9 -47 17
-98 21 -61 5 -85 11 -91 23 -17 32 -81 282 -81 318 0 19 5 54 12 76 10 34 10
41 -5 52 -9 7 -17 17 -17 22 0 6 21 73 46 149 56 169 56 206 1 283 -30 41 -37
60 -37 96 l0 45 53 -29 c28 -17 69 -37 89 -46 35 -14 37 -14 31 2 -3 10 -9 23
-13 28 -12 15 -41 105 -49 152 l-8 43 69 -66 c39 -36 72 -64 74 -61 2 2 -3 21
-11 41 -9 20 -13 41 -10 47 4 5 -3 21 -14 35 -43 54 -19 54 41 0 34 -31 65
-56 70 -56 5 0 6 -5 2 -12 -4 -7 -3 -8 5 -4 6 4 23 -1 39 -12 31 -21 65 -36
60 -25 -70 140 -116 238 -114 241 2 1 30 -6 62 -16 33 -11 76 -22 97 -25 32
-5 37 -3 37 13 0 10 -16 46 -36 80 -19 34 -47 87 -61 118 -39 89 -93 224 -93
234 0 5 15 -2 33 -15 43 -33 128 -77 147 -77 9 0 -4 18 -31 43 -53 51 -147
198 -178 280 -21 57 -20 84 1 71 6 -4 9 -1 6 7 -3 8 6 30 19 49 12 19 23 38
23 42 0 5 -427 8 -950 8 -522 0 -950 -2 -950 -5z m1495 -528 c4 -17 -3 -28
-33 -48 l-37 -26 7 71 c4 39 7 85 8 101 2 28 3 26 26 -23 13 -28 26 -62 29
-75z m-439 107 c16 -4 23 -16 27 -47 4 -23 9 -56 13 -73 l6 -32 -70 21 -70 20
13 38 c28 79 35 85 81 73z m-156 -79 c0 -8 -4 -15 -10 -15 -5 0 -7 7 -4 15 4
8 8 15 10 15 2 0 4 -7 4 -15z m-617 -57 c-3 -24 -12 -54 -19 -68 l-13 -25 -1
33 c0 30 23 102 34 102 2 0 2 -19 -1 -42z m603 -39 c-3 -34 -6 -82 -6 -106 0
-44 0 -45 -30 -39 -16 3 -43 8 -59 12 l-28 5 51 94 c61 114 82 123 72 34z
m191 4 c30 -15 31 -17 15 -29 -14 -11 -15 -15 -3 -26 8 -8 11 -8 7 -1 -3 6 -2
14 4 18 5 3 12 -7 16 -22 38 -162 107 -365 129 -383 13 -11 13 -8 0 23 -20 49
-59 227 -49 227 13 0 38 -61 49 -118 14 -69 51 -169 61 -160 3 3 -2 33 -10 66
-22 82 -21 95 3 82 14 -7 21 -25 26 -67 3 -32 12 -71 20 -88 l13 -30 -1 46
c-1 26 -5 45 -9 42 -5 -2 -7 7 -6 21 1 15 3 26 3 26 1 0 25 -18 55 -40 29 -22
55 -38 57 -37 2 2 -3 17 -11 33 -8 16 -22 55 -30 87 -12 47 -13 65 -3 94 7 20
19 38 27 40 13 4 13 3 0 -6 -12 -9 -11 -11 7 -11 23 0 73 52 73 76 0 8 9 14
21 14 16 0 19 -4 14 -17 -4 -10 -9 -24 -12 -32 -5 -11 -2 -11 14 -3 15 8 19
19 16 39 l-4 28 20 -24 c25 -27 26 -54 7 -110 -8 -22 -22 -71 -32 -108 -9 -38
-26 -90 -37 -118 -28 -68 -145 -240 -200 -293 l-44 -43 -39 44 -39 45 -95 6
c-52 3 -86 2 -76 -1 15 -4 16 -7 5 -14 -11 -7 -11 -9 4 -9 9 0 17 4 17 10 0 5
11 9 24 8 21 -2 25 -13 16 -38 -1 -3 -2 -8 -1 -12 0 -5 -3 -8 -9 -8 -13 0 -13
13 1 27 6 6 7 13 2 16 -5 4 -26 -8 -46 -24 -34 -28 -53 -29 -25 -1 7 7 9 12 5
12 -6 0 -37 -30 -64 -64 -7 -8 -13 -20 -13 -26 0 -14 -1 -14 -68 24 -76 43
-163 104 -227 158 -43 37 -47 27 -5 -10 13 -12 13 -13 -1 -9 -9 3 -22 1 -30
-5 -11 -8 -10 -9 3 -4 10 3 22 -2 27 -12 10 -16 10 -16 11 1 0 17 1 17 25 0
31 -23 32 -37 3 -27 -13 3 -20 3 -15 -1 4 -5 15 -9 26 -10 10 0 48 -30 85 -65
36 -36 76 -69 89 -73 13 -6 17 -11 10 -14 -7 -3 -13 -11 -13 -19 0 -8 -5 -23
-12 -34 -11 -17 -14 -18 -29 -4 -14 13 -18 13 -28 0 -10 -12 -9 -14 6 -11 32
5 33 -5 8 -53 -14 -26 -25 -56 -24 -67 0 -12 5 -6 11 15 l10 35 14 -30 13 -30
-5 37 c-6 34 18 98 37 98 7 0 42 -114 42 -138 0 -9 4 -22 9 -29 5 -6 10 -67
10 -135 l1 -123 9 109 c7 76 6 117 -1 133 -6 13 -11 32 -11 43 0 10 -11 51
-25 92 -29 85 -28 81 -13 72 7 -4 8 -3 4 5 -4 7 -5 19 -1 29 5 14 7 14 16 2 9
-12 10 -12 5 3 -8 25 16 31 51 13 59 -30 60 -40 20 -115 -26 -48 -37 -81 -37
-110 0 -30 3 -40 12 -35 8 5 9 2 5 -10 -4 -9 -3 -15 2 -11 14 8 20 -38 23
-192 2 -89 7 -144 14 -147 7 -3 8 13 3 48 -4 28 -8 89 -8 135 l-1 85 20 -22
c18 -19 20 -35 20 -164 -1 -180 -14 -258 -40 -232 -13 13 0 125 14 117 6 -4 5
1 -3 10 -14 18 -22 22 -20 10 1 -5 1 -28 0 -53 -1 -35 -4 -42 -12 -30 -9 12
-10 11 -6 -7 3 -12 -1 -27 -8 -33 -10 -8 -21 4 -48 52 -49 89 -139 218 -197
281 l-50 54 21 62 c19 55 20 64 6 79 -30 35 -29 58 5 93 l33 34 6 -102 c5
-100 6 -102 47 -157 24 -31 45 -56 48 -56 3 0 -8 17 -24 38 -16 20 -35 48 -41
60 -12 22 -11 23 11 17 12 -4 32 -15 43 -24 19 -15 19 -15 6 2 -8 10 -29 24
-48 32 l-33 14 0 106 c0 82 3 105 13 99 6 -4 9 -4 5 0 -3 4 -10 8 -15 9 -4 0
-14 7 -21 14 -7 7 -19 13 -25 13 -6 0 -2 -7 11 -15 l22 -16 -40 -50 c-45 -57
-46 -62 -25 -103 20 -37 20 -36 -14 -140 l-28 -89 -40 59 c-22 32 -63 83 -92
113 -28 29 -48 58 -44 64 4 6 1 7 -6 2 -15 -9 -63 33 -54 48 3 6 1 7 -5 3 -10
-6 -75 45 -142 112 -14 13 -35 31 -47 39 -13 9 -20 20 -16 26 3 5 2 7 -4 4
-16 -10 -203 201 -203 230 0 4 16 32 36 62 26 39 35 60 31 80 -4 22 1 31 34
53 l38 27 -9 -24 c-15 -41 -41 -89 -58 -107 -8 -10 -11 -18 -6 -18 15 0 101
28 122 39 17 9 19 8 15 -9 -4 -16 0 -20 18 -20 15 0 32 -12 46 -31 51 -74 172
-195 233 -234 69 -44 105 -61 95 -45 -3 6 -11 10 -17 10 -20 0 -143 89 -183
132 -107 115 -127 145 -120 177 7 34 42 62 49 39 14 -47 39 -109 47 -113 5 -4
9 19 9 52 1 53 2 56 14 34 12 -22 13 -19 18 44 7 78 24 103 57 85 12 -6 19
-15 16 -20 -3 -5 -1 -11 5 -15 16 -10 12 -36 -13 -69 -12 -17 -31 -44 -40 -59
l-18 -28 40 20 c21 11 41 26 44 33 3 10 7 10 17 1 9 -9 8 -14 -9 -22 -12 -7
-21 -16 -21 -22 0 -6 7 -3 16 5 8 9 23 16 31 16 14 0 14 2 -1 19 -11 12 -13
21 -7 25 6 4 17 -7 26 -25 9 -17 19 -28 22 -25 3 3 -4 20 -15 37 l-20 32 52
71 c29 39 73 104 99 144 26 40 54 75 62 78 15 6 60 -39 60 -60 0 -5 8 -10 19
-12 17 -2 17 -1 -2 19 -11 12 -25 33 -32 46 -12 23 -12 24 21 17 24 -4 30 -3
19 4 -13 8 -13 10 1 10 9 0 19 -9 22 -20 4 -15 10 -18 24 -13 15 6 16 4 6 -9
-7 -8 -10 -18 -7 -21 4 -3 12 -44 19 -89 7 -46 20 -99 29 -118 9 -19 13 -26
10 -15 -4 11 -9 52 -11 92 l-6 72 44 4 44 4 -48 1 c-29 1 -46 6 -42 12 3 6 13
10 22 10 9 0 31 12 50 26 28 21 38 24 61 16 15 -5 26 -15 24 -21 -1 -7 2 -10
7 -7 5 4 12 2 16 -3 3 -6 13 -7 22 -4 14 6 14 8 -3 20 -12 9 -13 13 -4 13 32
0 -3 11 -81 26 -47 8 -90 19 -96 22 -12 8 5 132 26 184 l10 27 43 -15 c24 -9
58 -23 75 -31z m458 -25 l24 -53 -57 -35 c-31 -19 -59 -35 -62 -35 -3 0 -11
-4 -17 -8 -33 -21 16 63 54 93 29 23 18 27 -11 5 -11 -8 -27 -15 -35 -15 -11
0 -10 4 5 15 19 15 19 15 -1 9 -14 -4 -8 6 20 34 22 22 44 40 48 41 4 1 19
-23 32 -51z m-1232 -130 c-10 -54 -20 -67 -28 -35 -5 20 -2 33 10 47 24 27 26
25 18 -12z m477 7 c0 -2 -9 -9 -20 -15 -16 -9 -18 -8 -14 5 5 13 34 22 34 10z
m-231 -162 l-53 -117 -14 35 c-8 19 -19 37 -24 40 -7 4 20 46 63 100 49 62 75
87 77 76 2 -10 -20 -70 -49 -134z m-488 94 c-6 -8 -8 -17 -4 -20 3 -4 -4 -7
-16 -7 l-23 0 23 20 c28 23 36 25 20 7z m884 -7 c-27 -12 -43 -12 -25 0 8 5
22 9 30 9 10 0 8 -3 -5 -9z m-882 -180 c-20 -34 -33 -39 -33 -12 0 21 19 42
38 42 10 0 9 -7 -5 -30z m1077 -350 c5 0 7 7 4 15 -4 11 0 15 16 15 19 0 20
-2 10 -15 -15 -18 1 -21 30 -5 15 8 17 6 13 -8 -2 -10 4 -25 14 -33 17 -13 17
-13 4 4 -8 9 -12 20 -9 23 3 2 23 -17 45 -43 l40 -48 -28 -23 -29 -23 6 29 c3
17 1 38 -5 49 -10 15 -11 13 -6 -14 4 -20 1 -43 -9 -61 -22 -43 -8 -47 31 -10
18 17 36 29 40 25 3 -4 1 -7 -5 -7 -7 0 -12 -7 -12 -15 0 -8 -5 -15 -11 -15
-7 0 -25 -14 -41 -30 -40 -43 -69 -40 -30 3 16 19 16 19 -5 13 -34 -11 -99 11
-123 42 -13 17 -17 19 -11 6 13 -27 34 -44 68 -54 l28 -8 -28 -1 c-16 -1 -38
4 -50 10 -22 10 -22 10 -2 -6 15 -12 32 -15 65 -11 l45 6 -35 -28 c-22 -19
-28 -29 -17 -29 9 0 13 5 10 11 -3 6 -3 8 2 4 4 -4 14 -3 22 3 10 9 13 8 13
-5 0 -9 -6 -16 -12 -17 -7 0 -21 -2 -31 -4 -24 -5 -87 52 -87 79 0 17 -2 18
-10 6 -6 -9 -5 -19 2 -28 16 -18 12 -76 -8 -113 -16 -31 -15 -60 2 -129 l7
-25 -21 20 c-11 11 -22 26 -24 34 -2 8 -11 22 -20 32 -33 35 -32 64 3 134 18
36 36 65 41 65 4 0 8 15 7 33 0 25 -2 28 -8 13 -6 -15 -10 -16 -15 -7 -5 7
-22 21 -40 32 -17 10 -25 19 -18 19 8 0 34 18 59 40 35 30 49 37 59 29 9 -7
18 -7 31 0 10 6 12 11 5 11 -10 0 -10 4 0 20 10 17 14 18 16 5 2 -8 7 -15 12
-15z m-136 -45 c-4 -8 -8 -15 -10 -15 -2 0 -4 7 -4 15 0 8 4 15 10 15 5 0 7
-7 4 -15z"/>
<path d="M1186 1764 c-4 -10 -1 -14 6 -12 15 5 23 28 10 28 -5 0 -13 -7 -16
-16z"/>
<path d="M1158 1663 c7 -3 16 -2 19 1 4 3 -2 6 -13 5 -11 0 -14 -3 -6 -6z"/>
<path d="M1198 1653 c7 -3 16 -2 19 1 4 3 -2 6 -13 5 -11 0 -14 -3 -6 -6z"/>
<path d="M1138 1603 c7 -3 16 -2 19 1 4 3 -2 6 -13 5 -11 0 -14 -3 -6 -6z"/>
<path d="M1206 1587 c23 -7 49 -18 58 -26 11 -9 16 -10 16 -2 0 15 -61 41 -92
40 -15 -1 -9 -5 18 -12z"/>
<path d="M1183 1483 c9 -2 23 -2 30 0 6 3 -1 5 -18 5 -16 0 -22 -2 -12 -5z"/>
<path d="M1686 1444 c-11 -8 -16 -14 -10 -14 13 0 39 18 34 24 -3 2 -14 -2
-24 -10z"/>
<path d="M600 1253 c8 -3 19 -11 23 -17 6 -7 7 -6 4 4 -2 8 -12 16 -23 17 -13
2 -15 1 -4 -4z"/>
<path d="M606 1205 c4 -8 8 -15 10 -15 2 0 4 7 4 15 0 8 -4 15 -10 15 -5 0 -7
-7 -4 -15z"/>
<path d="M630 1211 c0 -5 5 -13 10 -16 6 -3 10 -2 10 4 0 5 -4 13 -10 16 -5 3
-10 2 -10 -4z"/>
<path d="M1483 1086 c-15 -13 -25 -27 -22 -30 3 -3 18 8 34 24 35 36 27 40
-12 6z"/>
<path d="M678 1076 c-10 -7 -15 -16 -12 -19 4 -3 13 1 21 9 9 8 14 17 12 19
-2 2 -12 -2 -21 -9z"/>
<path d="M763 1055 c0 -8 4 -15 9 -15 4 0 8 4 8 9 0 6 -4 12 -8 15 -5 3 -9 -1
-9 -9z"/>
<path d="M1060 1002 c0 -14 49 -44 63 -38 7 2 6 5 -4 5 -8 1 -25 10 -37 21
-12 12 -22 17 -22 12z"/>
<path d="M1441 966 l-24 -31 28 27 c16 15 27 29 24 31 -2 3 -15 -10 -28 -27z"/>
<path d="M886 911 c-3 -5 3 -11 15 -14 16 -4 18 -3 8 9 -13 16 -16 17 -23 5z"/>
<path d="M785 900 c-3 -5 -3 -14 0 -20 9 -15 32 -12 39 5 7 18 -5 20 -23 3
-11 -11 -13 -10 -8 5 7 19 2 23 -8 7z"/>
<path d="M870 863 c0 -5 9 -14 20 -21 11 -7 20 -8 20 -2 0 5 -9 14 -20 20 -11
6 -20 7 -20 3z"/>
<path d="M830 852 c0 -12 19 -26 26 -19 2 2 -2 10 -11 17 -9 8 -15 8 -15 2z"/>
<path d="M862 808 c7 -19 35 -21 35 -3 0 8 -9 15 -19 15 -11 0 -18 -5 -16 -12z"/>
<path d="M946 809 c4 -8 -1 -9 -17 -4 -13 4 -21 4 -17 0 13 -14 53 -13 66 1
11 12 8 14 -13 14 -17 0 -24 -4 -19 -11z"/>
<path d="M810 775 c25 -13 50 -24 55 -24 6 0 -10 11 -35 24 -25 13 -49 24 -55
24 -5 0 10 -11 35 -24z"/>
<path d="M1003 776 c7 -14 15 -26 20 -26 13 0 7 17 -13 35 -19 17 -19 17 -7
-9z"/>
<path d="M910 780 c0 -5 5 -10 11 -10 5 0 7 5 4 10 -3 6 -8 10 -11 10 -2 0 -4
-4 -4 -10z"/>
<path d="M946 752 c-8 -14 8 -24 28 -16 18 7 22 24 6 24 -5 0 -10 -6 -10 -12
0 -10 -3 -9 -9 1 -5 8 -11 9 -15 3z"/>
<path d="M520 716 c0 -2 8 -10 18 -17 15 -13 16 -12 3 4 -13 16 -21 21 -21 13z"/>
<path d="M1043 573 c-7 -14 -10 -23 -6 -19 10 10 33 -15 34 -38 0 -21 0 -21 9
2 10 23 4 52 -10 52 -5 0 -10 7 -12 15 -2 10 -7 6 -15 -12z m28 -20 c13 -16
12 -17 -3 -4 -10 7 -18 15 -18 17 0 8 8 3 21 -13z"/>
<path d="M891 444 c0 -11 3 -14 6 -6 3 7 2 16 -1 19 -3 4 -6 -2 -5 -13z"/>
<path d="M1056 315 c20 -25 41 -45 46 -45 5 0 -10 20 -33 45 -23 25 -44 45
-46 45 -3 0 12 -20 33 -45z"/>
<path d="M1111 159 c-1 -26 5 -41 21 -55 20 -17 21 -17 9 -1 -8 10 -18 35 -22
55 l-7 37 -1 -36z"/>
<path d="M1226 858 c-9 -12 -16 -29 -16 -38 1 -8 7 0 16 19 8 19 17 31 20 28
3 -3 1 -14 -5 -25 -14 -26 -14 -42 0 -42 6 0 9 6 6 14 -4 10 0 13 14 11 11 -2
17 0 14 6 -4 5 -11 6 -17 3 -6 -4 -8 1 -4 14 10 29 -10 36 -28 10z"/>
<path d="M1361 854 c0 -25 2 -26 9 -9 8 21 13 15 23 -30 4 -16 5 -14 6 6 0 14
-8 34 -19 44 -20 18 -20 17 -19 -11z"/>
<path d="M1382 770 c-18 -29 -15 -38 4 -12 9 13 14 25 12 27 -2 2 -9 -5 -16
-15z"/>
<path d="M2175 2235 c28 -8 53 -14 58 -15 21 -1 2 -18 -33 -29 -47 -14 -53
-40 -15 -65 14 -9 23 -21 20 -26 -4 -6 5 -10 19 -10 26 0 26 1 26 80 l0 80
-62 -1 -63 0 50 -14z"/>
<path d="M2046 2171 c-4 -6 -3 -11 3 -11 5 0 13 -9 16 -21 4 -11 9 -18 12 -16
2 3 -2 18 -10 33 -9 17 -17 23 -21 15z"/>
<path d="M2026 2117 c3 -10 9 -15 12 -12 3 3 0 11 -7 18 -10 9 -11 8 -5 -6z"/>
<path d="M2124 1919 c-4 -7 -3 -9 4 -5 5 3 13 0 15 -6 4 -9 6 -10 6 -1 1 17
-16 25 -25 12z"/>
<path d="M2227 539 c-9 -6 -36 -10 -60 -11 -23 0 -47 -5 -54 -10 -7 -5 -21 -7
-32 -3 -14 4 -23 0 -30 -13 -8 -15 -5 -23 14 -40 29 -25 31 -35 10 -52 -29
-24 -18 -40 28 -40 24 0 65 -7 91 -16 26 -9 49 -14 52 -11 3 2 3 50 2 105 -3
93 -4 100 -21 91z m-43 -48 c3 -5 -1 -12 -10 -15 -8 -3 -13 -2 -9 3 3 5 -1 12
-7 14 -8 4 -7 6 4 6 9 1 19 -3 22 -8z m-1 -38 c-7 -2 -13 -13 -13 -23 0 -10
-4 -21 -9 -24 -4 -3 -6 6 -3 19 4 21 1 25 -21 25 -14 0 -28 -6 -30 -12 -3 -8
-6 -6 -6 5 -1 14 7 17 47 16 26 0 41 -3 35 -6z m-60 -50 c-7 -2 -19 -2 -25 0
-7 3 -2 5 12 5 14 0 19 -2 13 -5z"/>
<path d="M1935 440 c3 -5 8 -10 11 -10 2 0 4 5 4 10 0 6 -5 10 -11 10 -5 0 -7
-4 -4 -10z"/>
<path d="M2042 428 c6 -18 28 -21 28 -4 0 9 -7 16 -16 16 -9 0 -14 -5 -12 -12z"/>
<path d="M1927 419 c7 -7 15 -10 18 -7 3 3 -2 9 -12 12 -14 6 -15 5 -6 -5z"/>
<path d="M1896 405 c4 -8 11 -15 16 -15 6 0 5 6 -2 15 -7 8 -14 15 -16 15 -2
0 -1 -7 2 -15z"/>
<path d="M1961 404 c0 -11 3 -14 6 -6 3 7 2 16 -1 19 -3 4 -6 -2 -5 -13z"/>
<path d="M1986 405 c4 -8 8 -15 10 -15 2 0 4 7 4 15 0 8 -4 15 -10 15 -5 0 -7
-7 -4 -15z"/>
<path d="M2020 401 c0 -5 5 -13 10 -16 6 -3 10 -2 10 4 0 5 -4 13 -10 16 -5 3
-10 2 -10 -4z"/>
<path d="M894 296 c1 -8 5 -18 8 -22 4 -3 5 1 4 10 -1 8 -5 18 -8 22 -4 3 -5
-1 -4 -10z"/>
<path d="M2080 277 c19 -8 36 -21 38 -30 4 -20 42 -23 42 -3 0 22 -23 35 -70
41 l-45 5 35 -13z"/>
<path d="M2025 240 c3 -5 13 -10 21 -10 8 0 14 5 14 10 0 6 -9 10 -21 10 -11
0 -17 -4 -14 -10z"/>
<path d="M2223 170 c-30 -12 -29 -34 2 -48 24 -11 25 -10 25 23 0 19 -1 35 -2
34 -2 0 -13 -4 -25 -9z"/>
<path d="M2038 63 c6 -2 18 -2 25 0 6 3 1 5 -13 5 -14 0 -19 -2 -12 -5z"/>
<path d="M1916 43 c-14 -15 -2 -19 67 -21 45 -1 66 1 57 7 -19 11 -116 22
-124 14z"/>
</g>
</svg>
